<?xml version="1.0" encoding="UTF-8" standalone="no"?>
<!DOCTYPE svg PUBLIC "-//W3C//DTD SVG 1.1//EN"
 "http://www.w3.org/Graphics/SVG/1.1/DTD/svg11.dtd">
<!-- Generated by graphviz version 5.0.0 (20220707.1540)
 -->
<!-- Title: dependencies Pages: 1 -->
<svg width="441pt" height="174pt"
 viewBox="0.00 0.00 441.00 173.80" xmlns="http://www.w3.org/2000/svg" xmlns:xlink="http://www.w3.org/1999/xlink">
<g id="graph0" class="graph" transform="scale(1 1) rotate(0) translate(4 169.8)">
<title>dependencies</title>
<polygon fill="white" stroke="transparent" points="-4,4 -4,-169.8 437,-169.8 437,4 -4,4"/>
<text text-anchor="middle" x="216.5" y="-8.2" font-family="sans-serif" font-size="14.00">dependencies</text>
<g id="clust1" class="cluster">
<title>cluster_RoomModule</title>
<polygon fill="none" stroke="black" stroke-dasharray="1,5" points="8,-32.8 8,-157.8 425,-157.8 425,-32.8 8,-32.8"/>
</g>
<g id="clust3" class="cluster">
<title>cluster_RoomModule_imports</title>
<polygon fill="none" stroke="black" points="303,-40.8 303,-92.8 417,-92.8 417,-40.8 303,-40.8"/>
</g>
<g id="clust6" class="cluster">
<title>cluster_RoomModule_providers</title>
<polygon fill="none" stroke="black" points="16,-40.8 16,-92.8 295,-92.8 295,-40.8 16,-40.8"/>
</g>
<!-- PrismaModule -->
<g id="node1" class="node">
<title>PrismaModule</title>
<polygon fill="#8dd3c7" stroke="black" points="409.44,-84.8 406.44,-88.8 385.44,-88.8 382.44,-84.8 310.56,-84.8 310.56,-48.8 409.44,-48.8 409.44,-84.8"/>
<text text-anchor="middle" x="360" y="-62.6" font-family="Times,serif" font-size="14.00">PrismaModule</text>
</g>
<!-- RoomModule -->
<g id="node2" class="node">
<title>RoomModule</title>
<polygon fill="#8dd3c7" stroke="black" points="274.78,-149.8 271.78,-153.8 250.78,-153.8 247.78,-149.8 181.22,-149.8 181.22,-113.8 274.78,-113.8 274.78,-149.8"/>
<text text-anchor="middle" x="228" y="-127.6" font-family="Times,serif" font-size="14.00">RoomModule</text>
</g>
<!-- PrismaModule&#45;&gt;RoomModule -->
<g id="edge1" class="edge">
<title>PrismaModule&#45;&gt;RoomModule</title>
<path fill="none" stroke="black" d="M360,-84.91C360,-104.14 360,-131.8 360,-131.8 360,-131.8 284.91,-131.8 284.91,-131.8"/>
<polygon fill="black" stroke="black" points="284.91,-128.3 274.91,-131.8 284.91,-135.3 284.91,-128.3"/>
</g>
<!-- CardService -->
<g id="node3" class="node">
<title>CardService</title>
<ellipse fill="#fdb462" stroke="black" cx="228" cy="-66.8" rx="58.53" ry="18"/>
<text text-anchor="middle" x="228" y="-62.6" font-family="Times,serif" font-size="14.00">CardService</text>
</g>
<!-- CardService&#45;&gt;RoomModule -->
<g id="edge2" class="edge">
<title>CardService&#45;&gt;RoomModule</title>
<path fill="none" stroke="black" d="M228,-84.91C228,-84.91 228,-103.79 228,-103.79"/>
<polygon fill="black" stroke="black" points="224.5,-103.79 228,-113.79 231.5,-103.79 224.5,-103.79"/>
</g>
<!-- RoomService -->
<g id="node4" class="node">
<title>RoomService</title>
<ellipse fill="#fdb462" stroke="black" cx="88" cy="-66.8" rx="63.71" ry="18"/>
<text text-anchor="middle" x="88" y="-62.6" font-family="Times,serif" font-size="14.00">RoomService</text>
</g>
<!-- RoomService&#45;&gt;RoomModule -->
<g id="edge3" class="edge">
<title>RoomService&#45;&gt;RoomModule</title>
<path fill="none" stroke="black" d="M88,-84.91C88,-104.14 88,-131.8 88,-131.8 88,-131.8 170.99,-131.8 170.99,-131.8"/>
<polygon fill="black" stroke="black" points="170.99,-135.3 180.99,-131.8 170.99,-128.3 170.99,-135.3"/>
</g>
</g>
</svg>
