<?xml version="1.0" encoding="UTF-8" standalone="no"?>
<!DOCTYPE svg PUBLIC "-//W3C//DTD SVG 1.1//EN"
 "http://www.w3.org/Graphics/SVG/1.1/DTD/svg11.dtd">
<!-- Generated by graphviz version 5.0.0 (20220707.1540)
 -->
<!-- Title: dependencies Pages: 1 -->
<svg width="725pt" height="174pt"
 viewBox="0.00 0.00 725.00 173.80" xmlns="http://www.w3.org/2000/svg" xmlns:xlink="http://www.w3.org/1999/xlink">
<g id="graph0" class="graph" transform="scale(1 1) rotate(0) translate(4 169.8)">
<title>dependencies</title>
<polygon fill="white" stroke="transparent" points="-4,4 -4,-169.8 721,-169.8 721,4 -4,4"/>
<text text-anchor="middle" x="358.5" y="-8.2" font-family="sans-serif" font-size="14.00">dependencies</text>
<g id="clust1" class="cluster">
<title>cluster_AppModule</title>
<polygon fill="none" stroke="black" stroke-dasharray="1,5" points="8,-32.8 8,-157.8 709,-157.8 709,-32.8 8,-32.8"/>
</g>
<g id="clust3" class="cluster">
<title>cluster_AppModule_imports</title>
<polygon fill="none" stroke="black" points="154,-40.8 154,-92.8 701,-92.8 701,-40.8 154,-40.8"/>
</g>
<g id="clust6" class="cluster">
<title>cluster_AppModule_providers</title>
<polygon fill="none" stroke="black" points="16,-40.8 16,-92.8 146,-92.8 146,-40.8 16,-40.8"/>
</g>
<!-- AuthModule -->
<g id="node1" class="node">
<title>AuthModule</title>
<polygon fill="#8dd3c7" stroke="black" points="692.55,-84.8 689.55,-88.8 668.55,-88.8 665.55,-84.8 605.45,-84.8 605.45,-48.8 692.55,-48.8 692.55,-84.8"/>
<text text-anchor="middle" x="649" y="-62.6" font-family="Times,serif" font-size="14.00">AuthModule</text>
</g>
<!-- AppModule -->
<g id="node6" class="node">
<title>AppModule</title>
<polygon fill="#8dd3c7" stroke="black" points="417.66,-149.8 414.66,-153.8 393.66,-153.8 390.66,-149.8 334.34,-149.8 334.34,-113.8 417.66,-113.8 417.66,-149.8"/>
<text text-anchor="middle" x="376" y="-127.6" font-family="Times,serif" font-size="14.00">AppModule</text>
</g>
<!-- AuthModule&#45;&gt;AppModule -->
<g id="edge1" class="edge">
<title>AuthModule&#45;&gt;AppModule</title>
<path fill="none" stroke="black" d="M649,-85.08C649,-106.12 649,-137.8 649,-137.8 649,-137.8 427.76,-137.8 427.76,-137.8"/>
<polygon fill="black" stroke="black" points="427.76,-134.3 417.76,-137.8 427.76,-141.3 427.76,-134.3"/>
</g>
<!-- CardModule -->
<g id="node2" class="node">
<title>CardModule</title>
<polygon fill="#8dd3c7" stroke="black" points="587.27,-84.8 584.27,-88.8 563.27,-88.8 560.27,-84.8 500.73,-84.8 500.73,-48.8 587.27,-48.8 587.27,-84.8"/>
<text text-anchor="middle" x="544" y="-62.6" font-family="Times,serif" font-size="14.00">CardModule</text>
</g>
<!-- CardModule&#45;&gt;AppModule -->
<g id="edge2" class="edge">
<title>CardModule&#45;&gt;AppModule</title>
<path fill="none" stroke="black" d="M544,-84.82C544,-102.17 544,-125.8 544,-125.8 544,-125.8 427.96,-125.8 427.96,-125.8"/>
<polygon fill="black" stroke="black" points="427.96,-122.3 417.96,-125.8 427.96,-129.3 427.96,-122.3"/>
</g>
<!-- PrismaModule -->
<g id="node3" class="node">
<title>PrismaModule</title>
<polygon fill="#8dd3c7" stroke="black" points="482.44,-84.8 479.44,-88.8 458.44,-88.8 455.44,-84.8 383.56,-84.8 383.56,-48.8 482.44,-48.8 482.44,-84.8"/>
<text text-anchor="middle" x="433" y="-62.6" font-family="Times,serif" font-size="14.00">PrismaModule</text>
</g>
<!-- PrismaModule&#45;&gt;AppModule -->
<g id="edge3" class="edge">
<title>PrismaModule&#45;&gt;AppModule</title>
<path fill="none" stroke="black" d="M400.81,-84.91C400.81,-84.91 400.81,-103.79 400.81,-103.79"/>
<polygon fill="black" stroke="black" points="397.31,-103.79 400.81,-113.79 404.31,-103.79 397.31,-103.79"/>
</g>
<!-- RoomModule -->
<g id="node4" class="node">
<title>RoomModule</title>
<polygon fill="#8dd3c7" stroke="black" points="365.78,-84.8 362.78,-88.8 341.78,-88.8 338.78,-84.8 272.22,-84.8 272.22,-48.8 365.78,-48.8 365.78,-84.8"/>
<text text-anchor="middle" x="319" y="-62.6" font-family="Times,serif" font-size="14.00">RoomModule</text>
</g>
<!-- RoomModule&#45;&gt;AppModule -->
<g id="edge4" class="edge">
<title>RoomModule&#45;&gt;AppModule</title>
<path fill="none" stroke="black" d="M350.03,-84.91C350.03,-84.91 350.03,-103.79 350.03,-103.79"/>
<polygon fill="black" stroke="black" points="346.53,-103.79 350.03,-113.79 353.53,-103.79 346.53,-103.79"/>
</g>
<!-- UsersModule -->
<g id="node5" class="node">
<title>UsersModule</title>
<polygon fill="#8dd3c7" stroke="black" points="253.94,-84.8 250.94,-88.8 229.94,-88.8 226.94,-84.8 162.06,-84.8 162.06,-48.8 253.94,-48.8 253.94,-84.8"/>
<text text-anchor="middle" x="208" y="-62.6" font-family="Times,serif" font-size="14.00">UsersModule</text>
</g>
<!-- UsersModule&#45;&gt;AppModule -->
<g id="edge5" class="edge">
<title>UsersModule&#45;&gt;AppModule</title>
<path fill="none" stroke="black" d="M208,-84.82C208,-102.17 208,-125.8 208,-125.8 208,-125.8 324.04,-125.8 324.04,-125.8"/>
<polygon fill="black" stroke="black" points="324.04,-129.3 334.04,-125.8 324.04,-122.3 324.04,-129.3"/>
</g>
<!-- AppService -->
<g id="node7" class="node">
<title>AppService</title>
<ellipse fill="#fdb462" stroke="black" cx="81" cy="-66.8" rx="56.75" ry="18"/>
<text text-anchor="middle" x="81" y="-62.6" font-family="Times,serif" font-size="14.00">AppService</text>
</g>
<!-- AppService&#45;&gt;AppModule -->
<g id="edge6" class="edge">
<title>AppService&#45;&gt;AppModule</title>
<path fill="none" stroke="black" d="M81,-85.08C81,-106.12 81,-137.8 81,-137.8 81,-137.8 324.05,-137.8 324.05,-137.8"/>
<polygon fill="black" stroke="black" points="324.05,-141.3 334.05,-137.8 324.05,-134.3 324.05,-141.3"/>
</g>
</g>
</svg>
