<?xml version="1.0" encoding="UTF-8" standalone="no"?>
<!DOCTYPE svg PUBLIC "-//W3C//DTD SVG 1.1//EN"
 "http://www.w3.org/Graphics/SVG/1.1/DTD/svg11.dtd">
<!-- Generated by graphviz version 5.0.0 (20220707.1540)
 -->
<!-- Title: dependencies Pages: 1 -->
<svg width="1698pt" height="250pt"
 viewBox="0.00 0.00 1698.00 249.80" xmlns="http://www.w3.org/2000/svg" xmlns:xlink="http://www.w3.org/1999/xlink">
<g id="graph0" class="graph" transform="scale(1 1) rotate(0) translate(4 245.8)">
<title>dependencies</title>
<polygon fill="white" stroke="transparent" points="-4,4 -4,-245.8 1694,-245.8 1694,4 -4,4"/>
<text text-anchor="middle" x="845" y="-8.2" font-family="sans-serif" font-size="14.00">dependencies</text>
<g id="clust1" class="cluster">
<title>cluster_AppModule</title>
<polygon fill="none" stroke="black" stroke-dasharray="1,5" points="788,-32.8 788,-233.8 1384,-233.8 1384,-32.8 788,-32.8"/>
</g>
<g id="clust3" class="cluster">
<title>cluster_AppModule_imports</title>
<polygon fill="none" stroke="black" points="934,-40.8 934,-168.8 1364,-168.8 1364,-40.8 934,-40.8"/>
</g>
<g id="clust6" class="cluster">
<title>cluster_AppModule_providers</title>
<polygon fill="none" stroke="black" points="796,-116.8 796,-168.8 926,-168.8 926,-116.8 796,-116.8"/>
</g>
<g id="clust7" class="cluster">
<title>cluster_AuthModule</title>
<polygon fill="none" stroke="black" stroke-dasharray="1,5" points="8,-32.8 8,-100.8 290,-100.8 290,-32.8 8,-32.8"/>
</g>
<g id="clust12" class="cluster">
<title>cluster_AuthModule_providers</title>
<polygon fill="none" stroke="black" points="16,-40.8 16,-92.8 282,-92.8 282,-40.8 16,-40.8"/>
</g>
<g id="clust13" class="cluster">
<title>cluster_CardModule</title>
<polygon fill="none" stroke="black" stroke-dasharray="1,5" points="298,-32.8 298,-100.8 448,-100.8 448,-32.8 298,-32.8"/>
</g>
<g id="clust18" class="cluster">
<title>cluster_CardModule_providers</title>
<polygon fill="none" stroke="black" points="306,-40.8 306,-92.8 440,-92.8 440,-40.8 306,-40.8"/>
</g>
<g id="clust19" class="cluster">
<title>cluster_PrismaModule</title>
<polygon fill="none" stroke="black" stroke-dasharray="1,5" points="1392,-108.8 1392,-176.8 1682,-176.8 1682,-108.8 1392,-108.8"/>
</g>
<g id="clust22" class="cluster">
<title>cluster_PrismaModule_exports</title>
<polygon fill="none" stroke="black" points="1558,-116.8 1558,-168.8 1674,-168.8 1674,-116.8 1558,-116.8"/>
</g>
<g id="clust24" class="cluster">
<title>cluster_PrismaModule_providers</title>
<polygon fill="none" stroke="black" points="1400,-116.8 1400,-168.8 1550,-168.8 1550,-116.8 1400,-116.8"/>
</g>
<g id="clust25" class="cluster">
<title>cluster_RoomModule</title>
<polygon fill="none" stroke="black" stroke-dasharray="1,5" points="456,-32.8 456,-100.8 616,-100.8 616,-32.8 456,-32.8"/>
</g>
<g id="clust30" class="cluster">
<title>cluster_RoomModule_providers</title>
<polygon fill="none" stroke="black" points="464,-40.8 464,-92.8 608,-92.8 608,-40.8 464,-40.8"/>
</g>
<g id="clust31" class="cluster">
<title>cluster_UsersModule</title>
<polygon fill="none" stroke="black" stroke-dasharray="1,5" points="624,-32.8 624,-100.8 780,-100.8 780,-32.8 624,-32.8"/>
</g>
<g id="clust36" class="cluster">
<title>cluster_UsersModule_providers</title>
<polygon fill="none" stroke="black" points="632,-40.8 632,-92.8 772,-92.8 772,-40.8 632,-40.8"/>
</g>
<!-- AuthModule -->
<g id="node1" class="node">
<title>AuthModule</title>
<polygon fill="#8dd3c7" stroke="black" points="1029.55,-160.8 1026.55,-164.8 1005.55,-164.8 1002.55,-160.8 942.45,-160.8 942.45,-124.8 1029.55,-124.8 1029.55,-160.8"/>
<text text-anchor="middle" x="986" y="-138.6" font-family="Times,serif" font-size="14.00">AuthModule</text>
</g>
<!-- AppModule -->
<g id="node6" class="node">
<title>AppModule</title>
<polygon fill="#8dd3c7" stroke="black" points="1190.66,-225.8 1187.66,-229.8 1166.66,-229.8 1163.66,-225.8 1107.34,-225.8 1107.34,-189.8 1190.66,-189.8 1190.66,-225.8"/>
<text text-anchor="middle" x="1149" y="-203.6" font-family="Times,serif" font-size="14.00">AppModule</text>
</g>
<!-- AuthModule&#45;&gt;AppModule -->
<g id="edge1" class="edge">
<title>AuthModule&#45;&gt;AppModule</title>
<path fill="none" stroke="black" d="M986,-160.82C986,-178.17 986,-201.8 986,-201.8 986,-201.8 1097.02,-201.8 1097.02,-201.8"/>
<polygon fill="black" stroke="black" points="1097.02,-205.3 1107.02,-201.8 1097.02,-198.3 1097.02,-205.3"/>
</g>
<!-- CardModule -->
<g id="node2" class="node">
<title>CardModule</title>
<polygon fill="#8dd3c7" stroke="black" points="1246.27,-160.8 1243.27,-164.8 1222.27,-164.8 1219.27,-160.8 1159.73,-160.8 1159.73,-124.8 1246.27,-124.8 1246.27,-160.8"/>
<text text-anchor="middle" x="1203" y="-138.6" font-family="Times,serif" font-size="14.00">CardModule</text>
</g>
<!-- CardModule&#45;&gt;AppModule -->
<g id="edge2" class="edge">
<title>CardModule&#45;&gt;AppModule</title>
<path fill="none" stroke="black" d="M1175.22,-160.91C1175.22,-160.91 1175.22,-179.79 1175.22,-179.79"/>
<polygon fill="black" stroke="black" points="1171.72,-179.79 1175.22,-189.79 1178.72,-179.79 1171.72,-179.79"/>
</g>
<!-- PrismaModule -->
<g id="node3" class="node">
<title>PrismaModule</title>
<polygon fill="#8dd3c7" stroke="black" points="1356.44,-84.8 1353.44,-88.8 1332.44,-88.8 1329.44,-84.8 1257.56,-84.8 1257.56,-48.8 1356.44,-48.8 1356.44,-84.8"/>
<text text-anchor="middle" x="1307" y="-62.6" font-family="Times,serif" font-size="14.00">PrismaModule</text>
</g>
<!-- PrismaModule&#45;&gt;AuthModule -->
<g id="edge7" class="edge">
<title>PrismaModule&#45;&gt;AuthModule</title>
<path fill="none" stroke="black" d="M1257.61,-60.8C1172.65,-60.8 1007.89,-60.8 1007.89,-60.8 1007.89,-60.8 1007.89,-114.6 1007.89,-114.6"/>
<polygon fill="black" stroke="black" points="1004.39,-114.6 1007.89,-124.6 1011.39,-114.6 1004.39,-114.6"/>
</g>
<!-- PrismaModule&#45;&gt;CardModule -->
<g id="edge10" class="edge">
<title>PrismaModule&#45;&gt;CardModule</title>
<path fill="none" stroke="black" d="M1257.78,-78.8C1236.97,-78.8 1217.46,-78.8 1217.46,-78.8 1217.46,-78.8 1217.46,-114.63 1217.46,-114.63"/>
<polygon fill="black" stroke="black" points="1213.96,-114.63 1217.46,-124.63 1220.96,-114.63 1213.96,-114.63"/>
</g>
<!-- RoomModule -->
<g id="node4" class="node">
<title>RoomModule</title>
<polygon fill="#8dd3c7" stroke="black" points="1141.78,-160.8 1138.78,-164.8 1117.78,-164.8 1114.78,-160.8 1048.22,-160.8 1048.22,-124.8 1141.78,-124.8 1141.78,-160.8"/>
<text text-anchor="middle" x="1095" y="-138.6" font-family="Times,serif" font-size="14.00">RoomModule</text>
</g>
<!-- PrismaModule&#45;&gt;RoomModule -->
<g id="edge14" class="edge">
<title>PrismaModule&#45;&gt;RoomModule</title>
<path fill="none" stroke="black" d="M1257.46,-66.8C1201.59,-66.8 1118.44,-66.8 1118.44,-66.8 1118.44,-66.8 1118.44,-114.79 1118.44,-114.79"/>
<polygon fill="black" stroke="black" points="1114.94,-114.79 1118.44,-124.79 1121.94,-114.79 1114.94,-114.79"/>
</g>
<!-- UsersModule -->
<g id="node5" class="node">
<title>UsersModule</title>
<polygon fill="#8dd3c7" stroke="black" points="1355.94,-160.8 1352.94,-164.8 1331.94,-164.8 1328.94,-160.8 1264.06,-160.8 1264.06,-124.8 1355.94,-124.8 1355.94,-160.8"/>
<text text-anchor="middle" x="1310" y="-138.6" font-family="Times,serif" font-size="14.00">UsersModule</text>
</g>
<!-- PrismaModule&#45;&gt;UsersModule -->
<g id="edge17" class="edge">
<title>PrismaModule&#45;&gt;UsersModule</title>
<path fill="none" stroke="black" d="M1310,-84.81C1310,-84.81 1310,-114.65 1310,-114.65"/>
<polygon fill="black" stroke="black" points="1306.5,-114.65 1310,-124.65 1313.5,-114.65 1306.5,-114.65"/>
</g>
<!-- PrismaModule&#45;&gt;AppModule -->
<g id="edge3" class="edge">
<title>PrismaModule&#45;&gt;AppModule</title>
<path fill="none" stroke="black" d="M1257.56,-72.8C1211.79,-72.8 1150.75,-72.8 1150.75,-72.8 1150.75,-72.8 1150.75,-179.59 1150.75,-179.59"/>
<polygon fill="black" stroke="black" points="1147.25,-179.59 1150.75,-189.59 1154.25,-179.59 1147.25,-179.59"/>
</g>
<!-- PrismaService  -->
<g id="node11" class="node">
<title>PrismaService </title>
<polygon fill="#fb8072" stroke="black" points="1666.37,-160.8 1565.63,-160.8 1565.63,-124.8 1666.37,-124.8 1666.37,-160.8"/>
<text text-anchor="middle" x="1616" y="-138.6" font-family="Times,serif" font-size="14.00">PrismaService </text>
</g>
<!-- PrismaModule&#45;&gt;PrismaService  -->
<g id="edge12" class="edge">
<title>PrismaModule&#45;&gt;PrismaService </title>
<path fill="none" stroke="black" stroke-dasharray="5,2" d="M1356.3,-60.8C1443.54,-60.8 1616,-60.8 1616,-60.8 1616,-60.8 1616,-114.6 1616,-114.6"/>
<polygon fill="black" stroke="black" points="1612.5,-114.6 1616,-124.6 1619.5,-114.6 1612.5,-114.6"/>
</g>
<!-- RoomModule&#45;&gt;AppModule -->
<g id="edge4" class="edge">
<title>RoomModule&#45;&gt;AppModule</title>
<path fill="none" stroke="black" d="M1124.53,-160.91C1124.53,-160.91 1124.53,-179.79 1124.53,-179.79"/>
<polygon fill="black" stroke="black" points="1121.03,-179.79 1124.53,-189.79 1128.03,-179.79 1121.03,-179.79"/>
</g>
<!-- UsersModule&#45;&gt;AppModule -->
<g id="edge5" class="edge">
<title>UsersModule&#45;&gt;AppModule</title>
<path fill="none" stroke="black" d="M1310,-160.91C1310,-180.14 1310,-207.8 1310,-207.8 1310,-207.8 1200.88,-207.8 1200.88,-207.8"/>
<polygon fill="black" stroke="black" points="1200.88,-204.3 1190.88,-207.8 1200.88,-211.3 1200.88,-204.3"/>
</g>
<!-- AppService -->
<g id="node7" class="node">
<title>AppService</title>
<ellipse fill="#fdb462" stroke="black" cx="861" cy="-142.8" rx="56.75" ry="18"/>
<text text-anchor="middle" x="861" y="-138.6" font-family="Times,serif" font-size="14.00">AppService</text>
</g>
<!-- AppService&#45;&gt;AppModule -->
<g id="edge6" class="edge">
<title>AppService&#45;&gt;AppModule</title>
<path fill="none" stroke="black" d="M861,-161.08C861,-182.12 861,-213.8 861,-213.8 861,-213.8 1097.12,-213.8 1097.12,-213.8"/>
<polygon fill="black" stroke="black" points="1097.12,-217.3 1107.12,-213.8 1097.12,-210.3 1097.12,-217.3"/>
</g>
<!-- AuthService -->
<g id="node8" class="node">
<title>AuthService</title>
<ellipse fill="#fdb462" stroke="black" cx="215" cy="-66.8" rx="59.11" ry="18"/>
<text text-anchor="middle" x="215" y="-62.6" font-family="Times,serif" font-size="14.00">AuthService</text>
</g>
<!-- AuthService&#45;&gt;AuthModule -->
<g id="edge8" class="edge">
<title>AuthService&#45;&gt;AuthModule</title>
<path fill="none" stroke="black" d="M215,-84.84C215,-97.36 215,-111.8 215,-111.8 215,-111.8 986,-111.8 986,-111.8 986,-111.8 986,-114.77 986,-114.77"/>
<polygon fill="black" stroke="black" points="982.5,-114.77 986,-124.77 989.5,-114.77 982.5,-114.77"/>
</g>
<!-- JwtStrategy -->
<g id="node9" class="node">
<title>JwtStrategy</title>
<ellipse fill="#fdb462" stroke="black" cx="81" cy="-66.8" rx="56.77" ry="18"/>
<text text-anchor="middle" x="81" y="-62.6" font-family="Times,serif" font-size="14.00">JwtStrategy</text>
</g>
<!-- JwtStrategy&#45;&gt;AuthModule -->
<g id="edge9" class="edge">
<title>JwtStrategy&#45;&gt;AuthModule</title>
<path fill="none" stroke="black" d="M81,-84.99C81,-99.98 81,-118.8 81,-118.8 81,-118.8 964.11,-118.8 964.11,-118.8 964.11,-118.8 964.11,-119.38 964.11,-119.38"/>
<polygon fill="black" stroke="black" points="960.61,-114.61 964.11,-124.61 967.61,-114.61 960.61,-114.61"/>
</g>
<!-- CardService -->
<g id="node10" class="node">
<title>CardService</title>
<ellipse fill="#fdb462" stroke="black" cx="373" cy="-66.8" rx="58.53" ry="18"/>
<text text-anchor="middle" x="373" y="-62.6" font-family="Times,serif" font-size="14.00">CardService</text>
</g>
<!-- CardService&#45;&gt;CardModule -->
<g id="edge11" class="edge">
<title>CardService&#45;&gt;CardModule</title>
<path fill="none" stroke="black" d="M392.59,-83.89C392.59,-88.28 392.59,-91.8 392.59,-91.8 392.59,-91.8 1188.54,-91.8 1188.54,-91.8 1188.54,-91.8 1188.54,-114.68 1188.54,-114.68"/>
<polygon fill="black" stroke="black" points="1185.04,-114.68 1188.54,-124.68 1192.04,-114.68 1185.04,-114.68"/>
</g>
<!-- CardService&#45;&gt;RoomModule -->
<g id="edge15" class="edge">
<title>CardService&#45;&gt;RoomModule</title>
<path fill="none" stroke="black" d="M353.41,-84.02C353.41,-94.08 353.41,-104.8 353.41,-104.8 353.41,-104.8 1071.56,-104.8 1071.56,-104.8 1071.56,-104.8 1071.56,-114.69 1071.56,-114.69"/>
<polygon fill="black" stroke="black" points="1068.06,-114.69 1071.56,-124.69 1075.06,-114.69 1068.06,-114.69"/>
</g>
<!-- PrismaService -->
<g id="node12" class="node">
<title>PrismaService</title>
<ellipse fill="#fdb462" stroke="black" cx="1475" cy="-142.8" rx="66.64" ry="18"/>
<text text-anchor="middle" x="1475" y="-138.6" font-family="Times,serif" font-size="14.00">PrismaService</text>
</g>
<!-- PrismaService&#45;&gt;PrismaModule -->
<g id="edge13" class="edge">
<title>PrismaService&#45;&gt;PrismaModule</title>
<path fill="none" stroke="black" d="M1475,-124.77C1475,-104.03 1475,-72.8 1475,-72.8 1475,-72.8 1366.5,-72.8 1366.5,-72.8"/>
<polygon fill="black" stroke="black" points="1366.5,-69.3 1356.5,-72.8 1366.5,-76.3 1366.5,-69.3"/>
</g>
<!-- RoomService -->
<g id="node13" class="node">
<title>RoomService</title>
<ellipse fill="#fdb462" stroke="black" cx="536" cy="-66.8" rx="63.71" ry="18"/>
<text text-anchor="middle" x="536" y="-62.6" font-family="Times,serif" font-size="14.00">RoomService</text>
</g>
<!-- RoomService&#45;&gt;RoomModule -->
<g id="edge16" class="edge">
<title>RoomService&#45;&gt;RoomModule</title>
<path fill="none" stroke="black" d="M536,-85.04C536,-92.23 536,-98.8 536,-98.8 536,-98.8 1095,-98.8 1095,-98.8 1095,-98.8 1095,-114.65 1095,-114.65"/>
<polygon fill="black" stroke="black" points="1091.5,-114.65 1095,-124.65 1098.5,-114.65 1091.5,-114.65"/>
</g>
<!-- UsersService -->
<g id="node14" class="node">
<title>UsersService</title>
<ellipse fill="#fdb462" stroke="black" cx="702" cy="-66.8" rx="61.97" ry="18"/>
<text text-anchor="middle" x="702" y="-62.6" font-family="Times,serif" font-size="14.00">UsersService</text>
</g>
<!-- UsersService&#45;&gt;UsersModule -->
<g id="edge18" class="edge">
<title>UsersService&#45;&gt;UsersModule</title>
<path fill="none" stroke="black" d="M748.43,-54.8C881.04,-54.8 1252.08,-54.8 1252.08,-54.8 1252.08,-54.8 1252.08,-142.8 1252.08,-142.8 1252.08,-142.8 1254.08,-142.8 1254.08,-142.8"/>
<polygon fill="black" stroke="black" points="1254.08,-146.3 1264.08,-142.8 1254.08,-139.3 1254.08,-146.3"/>
</g>
</g>
</svg>
